<svg width="56" height="56" viewBox="0 0 56 56" fill="none" xmlns="http://www.w3.org/2000/svg">
<path d="M0 10C0 4.47715 4.47715 0 10 0H46C51.5229 0 56 4.47715 56 10V46C56 51.5229 51.5228 56 46 56H10C4.47715 56 0 51.5228 0 46V10Z" fill="#1392EC"/>
<path d="M32.6666 38.5V36.1667C32.6666 34.929 32.175 33.742 31.2998 32.8668C30.4246 31.9917 29.2377 31.5 28 31.5H21C19.7623 31.5 18.5753 31.9917 17.7001 32.8668C16.825 33.742 16.3333 34.929 16.3333 36.1667V38.5" stroke="white" stroke-width="2.33333" stroke-linecap="round" stroke-linejoin="round"/>
<path d="M32.6667 17.6493C33.6674 17.9087 34.5536 18.4931 35.1863 19.3107C35.819 20.1283 36.1623 21.1328 36.1623 22.1666C36.1623 23.2004 35.819 24.205 35.1863 25.0226C34.5536 25.8402 33.6674 26.4245 32.6667 26.684" stroke="white" stroke-width="2.33333" stroke-linecap="round" stroke-linejoin="round"/>
<path d="M39.6667 38.5V36.1667C39.6659 35.1327 39.3218 34.1282 38.6883 33.311C38.0548 32.4938 37.1678 31.9102 36.1667 31.6517" stroke="white" stroke-width="2.33333" stroke-linecap="round" stroke-linejoin="round"/>
<path d="M24.5 26.8333C27.0773 26.8333 29.1666 24.744 29.1666 22.1667C29.1666 19.5893 27.0773 17.5 24.5 17.5C21.9227 17.5 19.8333 19.5893 19.8333 22.1667C19.8333 24.744 21.9227 26.8333 24.5 26.8333Z" stroke="white" stroke-width="2.33333" stroke-linecap="round" stroke-linejoin="round"/>
</svg>
