<svg width="56" height="56" viewBox="0 0 56 56" fill="none" xmlns="http://www.w3.org/2000/svg">
<path d="M0 10C0 4.47715 4.47715 0 10 0H46C51.5229 0 56 4.47715 56 10V46C56 51.5229 51.5228 56 46 56H10C4.47715 56 0 51.5228 0 46V10Z" fill="#1392EC"/>
<path d="M32.6667 25.6667C32.6667 26.9044 32.175 28.0913 31.2999 28.9665C30.4247 29.8417 29.2377 30.3334 28 30.3334C26.7624 30.3334 25.5754 29.8417 24.7002 28.9665C23.825 28.0913 23.3334 26.9044 23.3334 25.6667" stroke="white" stroke-width="2.33333" stroke-linecap="round" stroke-linejoin="round"/>
<path d="M17.6201 21.0397H38.3798" stroke="white" stroke-width="2.33333" stroke-linecap="round" stroke-linejoin="round"/>
<path d="M17.9667 20.3781C17.6637 20.782 17.5 21.2733 17.5 21.7781V37.3333C17.5 37.9522 17.7458 38.5456 18.1834 38.9832C18.621 39.4208 19.2145 39.6666 19.8333 39.6666H36.1667C36.7855 39.6666 37.379 39.4208 37.8166 38.9832C38.2542 38.5456 38.5 37.9522 38.5 37.3333V21.7781C38.5 21.2733 38.3363 20.782 38.0333 20.3781L35.7 17.2666C35.4827 16.9769 35.2008 16.7416 34.8768 16.5796C34.5528 16.4177 34.1956 16.3333 33.8333 16.3333H22.1667C21.8044 16.3333 21.4472 16.4177 21.1232 16.5796C20.7992 16.7416 20.5173 16.9769 20.3 17.2666L17.9667 20.3781Z" stroke="white" stroke-width="2.33333" stroke-linecap="round" stroke-linejoin="round"/>
</svg>
