<svg width="40" height="40" viewBox="0 0 40 40" fill="none" xmlns="http://www.w3.org/2000/svg">
<path d="M0 10C0 4.47715 4.47715 0 10 0H30C35.5228 0 40 4.47715 40 10V30C40 35.5228 35.5228 40 30 40H10C4.47715 40 0 35.5228 0 30V10Z" fill="#1392EC"/>
<path d="M24 18C24 19.0609 23.5786 20.0783 22.8284 20.8284C22.0783 21.5786 21.0609 22 20 22C18.9391 22 17.9217 21.5786 17.1716 20.8284C16.4214 20.0783 16 19.0609 16 18" stroke="white" stroke-width="2" stroke-linecap="round" stroke-linejoin="round"/>
<path d="M11.103 14.034H28.897" stroke="white" stroke-width="2" stroke-linecap="round" stroke-linejoin="round"/>
<path d="M11.4 13.467C11.1404 13.8132 11 14.2343 11 14.667V28C11 28.5304 11.2107 29.0391 11.5858 29.4142C11.9609 29.7893 12.4696 30 13 30H27C27.5304 30 28.0391 29.7893 28.4142 29.4142C28.7893 29.0391 29 28.5304 29 28V14.667C29 14.2343 28.8596 13.8132 28.6 13.467L26.6 10.8C26.4137 10.5516 26.1721 10.35 25.8944 10.2111C25.6167 10.0723 25.3105 10 25 10H15C14.6895 10 14.3833 10.0723 14.1056 10.2111C13.8279 10.35 13.5863 10.5516 13.4 10.8L11.4 13.467Z" stroke="white" stroke-width="2" stroke-linecap="round" stroke-linejoin="round"/>
</svg>
